<svg xmlns="http://www.w3.org/2000/svg" viewBox="0 0 100 100"><path d="M50,20 c-20,0 -35,15 -35,35 c0,20 15,35 35,35 c20,0 35,-15 35,-35 c0,-20 -15,-35 -35,-35 z" fill="#aaa"/><path d="M35,45 l-15,-15 l5,-5 l15,15 z M65,45 l15,-15 l-5,-5 l-15,15 z" fill="#888"/><circle cx="35" cy="50" r="5" fill="#000"/><circle cx="65" cy="50" r="5" fill="#000"/><path d="M50,60 c-5,0 -10,2 -10,5 c0,3 5,5 10,5 c5,0 10,-2 10,-5 c0,-3 -5,-5 -10,-5 z" fill="pink"/><path d="M45,65 c0,0 2.5,5 5,5 c2.5,0 5,-5 5,-5" fill="none" stroke="#000" stroke-width="1"/></svg>