<svg xmlns="http://www.w3.org/2000/svg" viewBox="0 0 100 100">
  <!-- Círculo exterior del reloj -->
  <circle cx="50" cy="50" r="45" fill="#f0f0f0" stroke="#333" stroke-width="3"/>
  <!-- Centro del reloj -->
  <circle cx="50" cy="50" r="3" fill="#333"/>
  <!-- Manecilla de las horas -->
  <line x1="50" y1="50" x2="50" y2="30" stroke="#333" stroke-width="4" stroke-linecap="round" transform="rotate(45 50 50)"/>
  <!-- Manecilla de los minutos -->
  <line x1="50" y1="50" x2="50" y2="25" stroke="#333" stroke-width="3" stroke-linecap="round" transform="rotate(180 50 50)"/>
  <!-- Marcas de las horas -->
  <line x1="50" y1="10" x2="50" y2="15" stroke="#333" stroke-width="2" transform="rotate(0 50 50)"/>
  <line x1="50" y1="10" x2="50" y2="15" stroke="#333" stroke-width="2" transform="rotate(30 50 50)"/>
  <line x1="50" y1="10" x2="50" y2="15" stroke="#333" stroke-width="2" transform="rotate(60 50 50)"/>
  <line x1="50" y1="10" x2="50" y2="15" stroke="#333" stroke-width="2" transform="rotate(90 50 50)"/>
  <line x1="50" y1="10" x2="50" y2="15" stroke="#333" stroke-width="2" transform="rotate(120 50 50)"/>
  <line x1="50" y1="10" x2="50" y2="15" stroke="#333" stroke-width="2" transform="rotate(150 50 50)"/>
  <line x1="50" y1="10" x2="50" y2="15" stroke="#333" stroke-width="2" transform="rotate(180 50 50)"/>
  <line x1="50" y1="10" x2="50" y2="15" stroke="#333" stroke-width="2" transform="rotate(210 50 50)"/>
  <line x1="50" y1="10" x2="50" y2="15" stroke="#333" stroke-width="2" transform="rotate(240 50 50)"/>
  <line x1="50" y1="10" x2="50" y2="15" stroke="#333" stroke-width="2" transform="rotate(270 50 50)"/>
  <line x1="50" y1="10" x2="50" y2="15" stroke="#333" stroke-width="2" transform="rotate(300 50 50)"/>
  <line x1="50" y1="10" x2="50" y2="15" stroke="#333" stroke-width="2" transform="rotate(330 50 50)"/>
</svg>