<svg xmlns="http://www.w3.org/2000/svg" viewBox="0 0 100 100"><circle cx="50" cy="50" r="15" fill="#ffdd00"/><path d="M50,20 c0,0 -15,-10 -15,0 c0,10 15,15 15,15 c0,0 15,-5 15,-15 c0,-10 -15,0 -15,0 z M50,80 c0,0 -15,10 -15,0 c0,-10 15,-15 15,-15 c0,0 15,5 15,15 c0,10 -15,0 -15,0 z M20,50 c0,0 -10,-15 0,-15 c10,0 15,15 15,15 c0,0 -5,15 -15,15 c-10,0 0,-15 0,-15 z M80,50 c0,0 10,-15 0,-15 c-10,0 -15,15 -15,15 c0,0 5,15 15,15 c10,0 0,-15 0,-15 z" fill="#ff6699"/><path d="M50,35 v30" stroke="#33aa33" stroke-width="4"/></svg>