<svg xmlns="http://www.w3.org/2000/svg" viewBox="0 0 100 100">
  <!-- Cuerpo de la guitarra -->
  <path d="M30 30 C25 40, 20 60, 30 75 C40 85, 60 85, 70 75 C80 60, 75 40, 70 30 C60 20, 40 20, 30 30" fill="#e67e22"/>
  
  <!-- Agujero de sonido -->
  <circle cx="50" cy="50" r="10" fill="#2c3e50"/>
  
  <!-- Mástil -->
  <rect x="70" y="25" width="8" height="50" fill="#8b4513"/>
  
  <!-- Clavijero -->
  <rect x="68" y="20" width="12" height="8" fill="#6b3000"/>
  
  <!-- Cuerdas -->
  <line x1="30" y1="45" x2="78" y2="45" stroke="#bdc3c7" stroke-width="1"/>
  <line x1="30" y1="48" x2="78" y2="48" stroke="#bdc3c7" stroke-width="1"/>
  <line x1="30" y1="51" x2="78" y2="51" stroke="#bdc3c7" stroke-width="1"/>
  <line x1="30" y1="54" x2="78" y2="54" stroke="#bdc3c7" stroke-width="1"/>
  <line x1="30" y1="57" x2="78" y2="57" stroke="#bdc3c7" stroke-width="1"/>
  <line x1="30" y1="60" x2="78" y2="60" stroke="#bdc3c7" stroke-width="1"/>
  
  <!-- Puente -->
  <rect x="45" y="65" width="10" height="3" fill="#34495e"/>
</svg>